<?xml version="1.0" encoding="UTF-8"?>
<svg width="64" height="64" version="1.1" xmlns="http://www.w3.org/2000/svg">
 <rect x="4" y="5" width="56" height="56" rx="5.6" ry="5.6" opacity=".2"/>
 <rect x="4" y="4" width="56" height="56" rx="5.6" ry="5.6" fill="#4f4f4f"/>
 <path d="m9.5996 4c-3.1024 0-5.5996 2.4972-5.5996 5.5996v1c0-3.1024 2.4972-5.5996 5.5996-5.5996h44.801c3.1024 0 5.5996 2.4972 5.5996 5.5996v-1c0-3.1024-2.4972-5.5996-5.5996-5.5996h-44.801z" fill="#fff" opacity=".1"/>
 <g transform="matrix(1.1293 0 0 1.1293 -9.7711 7.9181)" opacity=".2" stop-color="#000000" stroke-width=".81504" style="-inkscape-stroke:none;font-variation-settings:normal">
  <path d="m36.988 15.315c-3.603 5.3545-11.9 5.4684-11.151 12.591-2.7401 0.95625-2.6363 2.2993-2.8634 3.5974l0.07523 8.5437c4.6468-0.03403 9.2933 0.08519 13.94 0 4.6462 0.08519 9.2927-0.03403 13.939 0l0.07523-8.5437c-0.22706-1.2981-0.12326-2.6411-2.8634-3.5974 0.74821-7.1228-7.5484-7.2368-11.151-12.591z" stop-color="#000000" style="-inkscape-stroke:none;font-variation-settings:normal"/>
  <path d="m40.388 11.122c-1.6301 1.891-4.4385 2.1422-6.2728 0.56095-1.8343-1.5812-1.9999-4.396-0.36977-6.287 0.68447-0.79403 3.1896-2.1815 2.5173-1.5004-1.8287 1.8523-1.3274 4.6326-0.26329 5.5499 1.014 0.87412 3.8282 1.6152 5.5095-1.2215 0.51846-0.87475-0.39201 2.0525-1.121 2.8981z" stop-color="#000000" style="-inkscape-stroke:none;font-variation-settings:normal"/>
 </g>
 <g transform="matrix(1.1293 0 0 1.1293 -9.7711 6.6279)" fill="#fff">
  <path d="m36.988 15.315c-3.603 5.3545-11.9 5.4684-11.151 12.591-2.7401 0.95625-2.6363 2.2993-2.8634 3.5974l0.07523 8.5437c4.6468-0.03403 9.2933 0.08519 13.94 0 4.6462 0.08519 9.2927-0.03403 13.939 0l0.07523-8.5437c-0.22706-1.2981-0.12326-2.6411-2.8634-3.5974 0.74821-7.1228-7.5484-7.2368-11.151-12.591z"/>
  <path d="m40.388 11.122c-1.6301 1.891-4.4385 2.1422-6.2728 0.56095-1.8343-1.5812-1.9999-4.396-0.36977-6.287 0.68447-0.79403 3.1896-2.1815 2.5173-1.5004-1.8287 1.8523-1.3274 4.6326-0.26329 5.5499 1.014 0.87412 3.8282 1.6152 5.5095-1.2215 0.51846-0.87475-0.39201 2.0525-1.121 2.8981z"/>
 </g>
</svg>
