<?xml version="1.0" encoding="UTF-8" standalone="no"?>
<svg
   width="64"
   height="64"
   version="1.1"
   id="svg20"
   sodipodi:docname="elokab-adhan.svg"
   inkscape:export-filename="elokab-adhan.png"
   inkscape:export-xdpi="96"
   inkscape:export-ydpi="96"
   inkscape:version="1.1.1 (3bf5ae0d25, 2021-09-20)"
   xmlns:inkscape="http://www.inkscape.org/namespaces/inkscape"
   xmlns:sodipodi="http://sodipodi.sourceforge.net/DTD/sodipodi-0.dtd"
   xmlns="http://www.w3.org/2000/svg"
   xmlns:svg="http://www.w3.org/2000/svg">
  <defs
     id="defs24" />
  <sodipodi:namedview
     id="namedview22"
     pagecolor="#ffffff"
     bordercolor="#666666"
     borderopacity="1.0"
     inkscape:pageshadow="2"
     inkscape:pageopacity="0.0"
     inkscape:pagecheckerboard="0"
     showgrid="false"
     inkscape:zoom="8.4375"
     inkscape:cx="31.940741"
     inkscape:cy="32"
     inkscape:window-width="1366"
     inkscape:window-height="703"
     inkscape:window-x="0"
     inkscape:window-y="0"
     inkscape:window-maximized="1"
     inkscape:current-layer="svg20" />
  <rect
     x="4"
     y="5"
     width="56"
     height="56"
     rx="5.6"
     ry="5.6"
     opacity=".2"
     id="rect2" />
  <rect
     x="4"
     y="4"
     width="56"
     height="56"
     rx="5.6"
     ry="5.6"
     fill="#4f4f4f"
     id="rect4" />
  <path
     d="m9.5996 4c-3.1024 0-5.5996 2.4972-5.5996 5.5996v1c0-3.1024 2.4972-5.5996 5.5996-5.5996h44.801c3.1024 0 5.5996 2.4972 5.5996 5.5996v-1c0-3.1024-2.4972-5.5996-5.5996-5.5996h-44.801z"
     fill="#fff"
     opacity=".1"
     id="path6" />
  <g
     transform="matrix(1.1293 0 0 1.1293 -9.7711 7.9181)"
     opacity=".2"
     stop-color="#000000"
     stroke-width=".81504"
     style="-inkscape-stroke:none;font-variation-settings:normal"
     id="g12">
    <path
       d="m36.988 15.315c-3.603 5.3545-11.9 5.4684-11.151 12.591-2.7401 0.95625-2.6363 2.2993-2.8634 3.5974l0.07523 8.5437c4.6468-0.03403 9.2933 0.08519 13.94 0 4.6462 0.08519 9.2927-0.03403 13.939 0l0.07523-8.5437c-0.22706-1.2981-0.12326-2.6411-2.8634-3.5974 0.74821-7.1228-7.5484-7.2368-11.151-12.591z"
       stop-color="#000000"
       style="-inkscape-stroke:none;font-variation-settings:normal"
       id="path8" />
    <path
       d="m40.388 11.122c-1.6301 1.891-4.4385 2.1422-6.2728 0.56095-1.8343-1.5812-1.9999-4.396-0.36977-6.287 0.68447-0.79403 3.1896-2.1815 2.5173-1.5004-1.8287 1.8523-1.3274 4.6326-0.26329 5.5499 1.014 0.87412 3.8282 1.6152 5.5095-1.2215 0.51846-0.87475-0.39201 2.0525-1.121 2.8981z"
       stop-color="#000000"
       style="-inkscape-stroke:none;font-variation-settings:normal"
       id="path10" />
  </g>
  <g
     transform="matrix(1.1293 0 0 1.1293 -9.7711 6.6279)"
     fill="#fff"
     id="g18">
    <path
       d="m36.988 15.315c-3.603 5.3545-11.9 5.4684-11.151 12.591-2.7401 0.95625-2.6363 2.2993-2.8634 3.5974l0.07523 8.5437c4.6468-0.03403 9.2933 0.08519 13.94 0 4.6462 0.08519 9.2927-0.03403 13.939 0l0.07523-8.5437c-0.22706-1.2981-0.12326-2.6411-2.8634-3.5974 0.74821-7.1228-7.5484-7.2368-11.151-12.591z"
       id="path14" />
    <path
       d="m40.388 11.122c-1.6301 1.891-4.4385 2.1422-6.2728 0.56095-1.8343-1.5812-1.9999-4.396-0.36977-6.287 0.68447-0.79403 3.1896-2.1815 2.5173-1.5004-1.8287 1.8523-1.3274 4.6326-0.26329 5.5499 1.014 0.87412 3.8282 1.6152 5.5095-1.2215 0.51846-0.87475-0.39201 2.0525-1.121 2.8981z"
       id="path16" />
  </g>
</svg>
